<svg enable-background="new 0 0 327 86" height="86" viewBox="0 0 327 86" width="327" xmlns="http://www.w3.org/2000/svg" xmlns:xlink="http://www.w3.org/1999/xlink"><clipPath id="a"><path d="m-151-271.296h629.296v629.296h-629.296z"/></clipPath><g fill="#bbb"><path clip-path="url(#a)" d="m71.774 43.627c0-5.405-.108-9.838-.433-14.162h8.325l.432 8.433h.324c2.919-4.974 7.784-9.623 16.433-9.623 7.135 0 12.541 4.325 14.811 10.487h.216c1.621-2.919 3.676-5.19 5.838-6.811 3.135-2.379 6.595-3.676 11.568-3.676 6.919 0 17.189 4.54 17.189 22.704v30.811h-9.298v-29.623c0-10.054-3.675-16.107-11.351-16.107-5.406 0-9.621 4-11.243 8.648-.433 1.297-.757 3.026-.757 4.757v32.324h-9.297v-31.351c0-8.325-3.676-14.378-10.919-14.378-5.946 0-10.271 4.756-11.784 9.512-.541 1.407-.757 3.028-.757 4.65v31.567h-9.297z"/><path clip-path="url(#a)" d="m187.342 81.789-.757-6.596h-.324c-2.919 4.109-8.541 7.785-16 7.785-10.595 0-15.999-7.46-15.999-15.027 0-12.648 11.242-19.567 31.458-19.461v-1.08c0-4.324-1.188-12.107-11.891-12.107-4.866 0-9.947 1.513-13.622 3.891l-2.163-6.27c4.325-2.811 10.595-4.649 17.19-4.649 16 0 19.891 10.919 19.891 21.406v19.567c0 4.541.217 8.974.866 12.541zm-1.404-26.703c-10.38-.216-22.163 1.622-22.163 11.784 0 6.161 4.107 9.081 8.974 9.081 6.81 0 11.134-4.324 12.648-8.758.323-.972.541-2.053.541-3.026z"/><path clip-path="url(#a)" d="m217.504 14.761c.109 3.244-2.27 5.838-6.053 5.838-3.353 0-5.73-2.594-5.73-5.838 0-3.351 2.487-5.946 5.946-5.946 3.567 0 5.837 2.595 5.837 5.946m-10.594 14.704h9.514v52.324h-9.514z"/><path clip-path="url(#a)" d="m273.829 5.033v63.243c0 4.648.107 9.946.432 13.513h-8.541l-.431-9.081h-.217c-2.919 5.839-9.297 10.271-17.838 10.271-12.648 0-22.378-10.703-22.378-26.595-.108-17.405 10.701-28.108 23.459-28.108 8 0 13.404 3.784 15.783 8h.217v-31.243zm-9.514 45.729c0-1.189-.107-2.812-.433-4-1.406-6.054-6.594-11.027-13.729-11.027-9.838 0-15.677 8.649-15.677 20.216 0 10.596 5.19 19.353 15.46 19.353 6.379 0 12.217-4.217 13.946-11.353.325-1.296.433-2.594.433-4.107z"/><path clip-path="url(#a)" d="m315.018 81.789-.757-6.596h-.324c-2.919 4.109-8.541 7.785-16 7.785-10.595 0-16-7.46-16-15.027 0-12.648 11.243-19.567 31.459-19.461v-1.08c0-4.324-1.188-12.107-11.891-12.107-4.866 0-9.947 1.513-13.622 3.891l-2.163-6.27c4.325-2.811 10.595-4.649 17.19-4.649 16 0 19.891 10.919 19.891 21.406v19.567c0 4.541.217 8.974.866 12.541zm-1.405-26.703c-10.379-.216-22.163 1.622-22.163 11.784 0 6.161 4.107 9.081 8.974 9.081 6.811 0 11.134-4.324 12.648-8.758.323-.972.541-2.053.541-3.026z"/></g><path clip-path="url(#a)" d="m45.547 26.621c.211 4.757.342 9.583.309 14.199-.112 15.347-2.055 20.363-2.647 21.535-2.407 4.759-7.22 7.716-12.561 7.716-2.166 0-4.259-.493-6.224-1.469l-.088-.045c-6.907-3.5-9.683-11.968-6.188-18.877.593-1.172 3.482-5.71 15.778-14.894 3.698-2.762 7.663-5.516 11.621-8.165m11.614-22.987-.016.032c-16.079 10.27-44.194 27.486-50.598 40.146-6.74 13.327-1.406 29.591 11.912 36.341.003.002.006.003.009.006.004.001.006.003.01.005v-.001c3.908 1.973 8.071 2.908 12.17 2.908 9.879 0 19.397-5.43 24.161-14.848 6.404-12.66 3.61-45.51 2.355-64.547l.016-.032v-.001.001c-.006.004-.012.007-.018.011 0-.008 0-.014-.001-.021z" fill="#0f8ccc"/></svg>