<svg height="60" viewBox="0 0 120 59.999998" width="120" xmlns="http://www.w3.org/2000/svg"><g fill="#404041"><path d="m170.7 301.6h27.1v13.6h-42.7v-56.1h15.6z" transform="matrix(.15640552 0 0 .15640671 -7.199631 -.487085)"/><path d="m26.25551 44.448563v-.03128c0-2.518147 2.033272-4.567077 4.739087-4.567077s4.707807 2.017648 4.707807 4.535796v.03128c0 2.518148-2.033272 4.567077-4.739088 4.567077-2.705815 0-4.707806-2.017647-4.707806-4.535796m6.975686 0v-.03128c0-1.266893-.907152-2.361741-2.252239-2.361741-1.329447 0-2.220959 1.079206-2.220959 2.346101v.03128c0 1.266896.907152 2.361742 2.236599 2.361742 1.345088 0 2.236599-1.079206 2.236599-2.346101"/><path d="m38.689749 44.964705v-4.92681h2.471207v4.879889c0 1.266895.641263 1.861239 1.610978 1.861239.969713 0 1.610976-.578704 1.610976-1.798676v-4.942452h2.471207v4.864248c0 2.830961-1.610976 4.066575-4.113465 4.066575-2.486847 0-4.050903-1.251254-4.050903-4.004013"/><path d="m50.57657 40.037895h3.378358c3.128109 0 4.958056 1.798677 4.958056 4.332466v.03128c0 2.533788-1.845588 4.410669-5.004978 4.410669h-3.331436v-8.774416zm3.42528 6.616003c1.454573 0 2.424286-.797674 2.424286-2.220976v-.03128c0-1.407662-.969713-2.220976-2.424286-2.220976h-.985354v4.457591h.985354z"/><path d="m445.3 259.1h44.9v13.6h-29.4v9.6h26.6v12.9h-26.6v20h-15.5z" transform="matrix(.15640552 0 0 .15640671 -7.199631 -.487085)"/><path d="m527.3 301.6h27.2v13.6h-42.7v-56.1h15.5z" transform="matrix(.15640552 0 0 .15640671 -7.199631 -.487085)"/><path d="m85.877295 39.975331h2.346082l3.738092 8.83698h-2.611972l-.641261-1.564067h-3.378359l-.625624 1.564067h-2.549411zm2.142754 5.380391-.969714-2.486867-.985354 2.486867z"/><path d="m95.089583 40.037895h4.144744c1.345093 0 2.267883.344095 2.862223.95408.51614.500502.78202 1.173051.78202 2.048928v.03128c0 1.345098-.71946 2.236616-1.79866 2.690196l2.09584 3.065571h-2.8153l-1.767384-2.658913h-1.063561v2.658913h-2.439922v-8.790056zm4.035259 4.20734c.828948 0 1.298168-.406657 1.298168-1.032285v-.03128c0-.688189-.500501-1.032284-1.313808-1.032284h-1.595338v2.09585h1.610978z"/><path d="m741.6 302h30.1v13.2h-45.5v-56.1h45.1v13.2h-29.7v8.5h26.9v12.3h-26.9z" transform="matrix(.15640552 0 0 .15640671 -7.199631 -.487085)"/><path d="m11.741078 45.480848c-.344092.766392-1.063557 1.313816-2.0019908 1.313816-1.3294467 0-2.2365988-1.110488-2.2365988-2.361742v-.03128c0-1.266895.8915114-2.346101 2.2209583-2.346101 1.0009953 0 1.7673823.609986 2.0801933 1.454582h2.565051c-.406655-2.09585-2.252239-3.644276-4.6296038-3.644276-2.7058154 0-4.7390872 2.048928-4.7390872 4.567075v.03128c0 2.518148 2.0019907 4.535795 4.7078061 4.535795 2.3148019 0 4.1291059-1.501504 4.5983219-3.503511l-2.56505-.01563z"/></g><g transform="matrix(.15640552 0 0 .15640671 -7.199631 -.487085)"><path d="m702.6 141.8-175.5 1.2v89.1h225.8v-62.5l-42.9-24.6z" fill="#fff"/><path d="m674.8 223.9c2.1-7.2 1.3-13.8-2.2-18.7-3.2-4.5-8.6-7.1-15.1-7.4l-123.1-1.6c-.8 0-1.5-.4-1.9-1s-.5-1.4-.3-2.2c.4-1.2 1.6-2.1 2.9-2.2l124.2-1.6c14.7-.7 30.7-12.6 36.3-27.2l7.1-18.5c.3-.8.4-1.6.2-2.4-8-36.2-40.3-63.2-78.9-63.2-35.6 0-65.8 23-76.6 54.9-7-5.2-15.9-8-25.5-7.1-17.1 1.7-30.8 15.4-32.5 32.5-.4 4.4-.1 8.7.9 12.7-27.9.8-50.2 23.6-50.2 51.7 0 2.5.2 5 .5 7.5.2 1.2 1.2 2.1 2.4 2.1h227.2c1.3 0 2.5-.9 2.9-2.2z" fill="#f38020"/><path d="m714 144.8c-1.1 0-2.3 0-3.4.1-.8 0-1.5.6-1.8 1.4l-4.8 16.7c-2.1 7.2-1.3 13.8 2.2 18.7 3.2 4.5 8.6 7.1 15.1 7.4l26.2 1.6c.8 0 1.5.4 1.9 1s.5 1.5.3 2.2c-.4 1.2-1.6 2.1-2.9 2.2l-27.3 1.6c-14.8.7-30.7 12.6-36.3 27.2l-2 5.1c-.4 1 .3 2 1.4 2h93.8c1.1 0 2.1-.7 2.4-1.8 1.6-5.8 2.5-11.9 2.5-18.2 0-37-30.2-67.2-67.3-67.2" fill="#faae40"/></g></svg>