<svg enable-background="new 0 0 200 200" height="200" viewBox="0 0 200 200" width="200" xmlns="http://www.w3.org/2000/svg" xmlns:xlink="http://www.w3.org/1999/xlink"><linearGradient id="a" gradientUnits="userSpaceOnUse" x1="15.9067" x2="183.4647" y1="107.1987" y2="107.1987"><stop offset="0" stop-color="#bcbec0"/><stop offset=".1701" stop-color="#939598"/><stop offset=".8171" stop-color="#939598"/><stop offset="1" stop-color="#bcbec0"/></linearGradient><linearGradient id="b" gradientUnits="userSpaceOnUse" x1="26.2167" x2="173.1544" y1="141.9758" y2="141.9758"><stop offset="0" stop-color="#58595b"/><stop offset=".1947"/><stop offset=".8534"/><stop offset="1" stop-color="#58595b"/></linearGradient><linearGradient id="c" gradientUnits="userSpaceOnUse" x1="99.6855" x2="99.6855" y1="140.4994" y2="21.0678"><stop offset="0" stop-color="#414042"/><stop offset="1" stop-color="#6d6e71"/></linearGradient><linearGradient id="d" gradientUnits="userSpaceOnUse" x1="99.6855" x2="99.6855" y1="30.0098" y2="86.001"><stop offset="0" stop-color="#fff"/><stop offset="1" stop-color="#fff" stop-opacity=".5"/></linearGradient><path d="m183.449 164.1-9.407-115.056c-.05-.615-.265-1.201-.611-1.733-.345-.532-.82-1.01-1.391-1.411s-1.237-.725-1.967-.949c-.729-.224-1.52-.348-2.341-.348h-136.093c-.821 0-1.612.124-2.341.348s-1.396.548-1.967.949-1.046.879-1.391 1.411-.56 1.118-.611 1.733l-9.406 115.056c-.064.782.064 1.529.35 2.208.286.681.732 1.295 1.302 1.811.571.517 1.266.935 2.053 1.225s1.665.45 2.599.45h154.919c.934 0 1.812-.16 2.599-.45s1.482-.708 2.053-1.225c.57-.516 1.015-1.13 1.302-1.811.285-.68.413-1.426.349-2.208z" fill="url(#a)"/><path d="m183.449 159.761-9.407-115.056c-.05-.615-.265-1.201-.611-1.733-.345-.532-.82-1.01-1.391-1.411s-1.237-.725-1.967-.949c-.729-.224-1.52-.348-2.341-.348h-136.093c-.821 0-1.612.124-2.341.348s-1.396.548-1.967.949-1.046.879-1.391 1.411-.56 1.118-.611 1.733l-9.407 115.056c-.064.782.064 1.529.35 2.208.286.681.732 1.295 1.302 1.811.571.517 1.266.935 2.053 1.225s1.665.45 2.599.45h154.919c.934 0 1.812-.16 2.599-.45s1.482-.708 2.053-1.225c.57-.516 1.015-1.13 1.302-1.811.286-.68.414-1.426.35-2.208z" fill="#e4e4e4"/><path d="m173.134 131.227c-.048.748-.214 1.467-.495 2.138-.4.953-1.02 1.813-1.813 2.537-.794.725-1.761 1.312-2.855 1.718-1.094.407-2.314.632-3.611.632h-129.357c-1.295 0-2.513-.225-3.607-.632-1.092-.406-2.059-.993-2.852-1.718-.792-.723-1.412-1.584-1.812-2.537-.399-.951-.58-1.995-.495-3.088l.096-1.241c-.071.745-.112 1.182-.116 1.241l.02 16.665c-.084 1.093.096 2.137.495 3.088.4.953 1.019 1.813 1.812 2.537.794.725 1.76 1.312 2.852 1.718 1.093.407 2.311.632 3.607.632h129.357c1.297 0 2.517-.225 3.611-.632 1.093-.406 2.061-.993 2.855-1.718.793-.723 1.413-1.584 1.813-2.537.399-.951.58-1.995.495-3.088z" fill="url(#b)"/><path d="m173.134 130.492-7.55-95.196c-.068-.854-.365-1.666-.845-2.404-.479-.736-1.139-1.398-1.934-1.953-.794-.554-1.722-1.002-2.737-1.312-1.015-.309-2.118-.48-3.264-.48h-114.244c-1.144 0-2.246.171-3.26.48-1.015.309-1.942.757-2.735 1.312-.794.555-1.454 1.217-1.933 1.953-.479.737-.777 1.55-.845 2.404l-7.55 95.196c-.084 1.063.096 2.079.495 3.005.4.927 1.019 1.764 1.812 2.468.794.705 1.76 1.276 2.852 1.672 1.093.396 2.311.615 3.606.615h129.358c1.297 0 2.517-.219 3.611-.615 1.093-.395 2.061-.967 2.855-1.672.793-.704 1.413-1.541 1.813-2.468.399-.926.579-1.941.495-3.005z" fill="url(#c)"/><path d="m26.237 130.492s0 .152.001.447c-.011.295.031.732.144 1.285.118.559.357 1.207.771 1.927.427.689 1.049 1.411 1.892 2.036 1.657 1.307 4.256 1.907 7.168 1.761 1.482-.031 3.06-.064 4.722-.099 1.663-.001 3.411-.001 5.235-.002h53.513s38.919 0 53.513 0c1.824.007 3.573-.022 5.235.008 1.663.035 3.24.067 4.722.098 2.934.143 5.509-.46 7.171-1.766.839-.622 1.468-1.349 1.893-2.039.407-.705.654-1.373.769-1.924.113-.553.155-.992.143-1.285.001-.295.001-.447.001-.447s.006.152.017.446c.023.294 0 .734-.091 1.3-.096.57-.313 1.244-.702 1.989-.414.733-1.017 1.496-1.861 2.178-1.669 1.433-4.363 2.168-7.341 2.143-1.482.031-3.06.063-4.722.098-1.663.029-3.411.001-5.235.008-14.595 0-34.054 0-53.513 0s-38.919 0-53.513 0c-1.824-.001-3.573-.001-5.235-.002-1.663-.035-3.24-.068-4.722-.099-.371-.008-.735-.015-1.094-.023-.363-.018-.733-.07-1.087-.104-.354-.043-.709-.064-1.041-.126-.321-.092-.635-.182-.944-.27-1.276-.319-2.335-.956-3.178-1.624-.839-.68-1.449-1.447-1.861-2.182-.382-.73-.607-1.424-.699-1.986-.091-.566-.114-1.007-.091-1.3.014-.294.02-.446.02-.446z" fill="#fff" opacity=".4"/><path d="m119.104 85.081c-1.505-2.175-3.594-3.843-5.992-5.158-2.394-1.313-5.098-2.275-7.838-3.038-2.738-.762-5.513-1.326-8.052-1.842-2.154-.438-4.023-.839-5.613-1.239-1.589-.4-2.901-.799-3.943-1.234-1.041-.435-1.813-.907-2.324-1.452-.51-.545-.758-1.163-.753-1.89.007-.966.407-1.776 1.087-2.446s1.639-1.202 2.765-1.613 2.419-.701 3.767-.889 2.75-.273 4.096-.273c1.08 0 2.154.037 3.222.111s2.128.185 3.18.332c1.052.148 2.095.332 3.128.552 1.033.221 2.056.478 3.066.771.164.053.345.109.543.163.197.055.41.108.634.154.225.046.461.086.707.114s.501.045.762.045c1.09 0 2.074-.198 2.936-.54s1.601-.829 2.203-1.407c.601-.578 1.064-1.247 1.374-1.954.31-.706.466-1.451.454-2.181-.011-.673-.133-1.31-.357-1.902-.224-.591-.549-1.136-.965-1.625s-.922-.921-1.51-1.286c-.587-.365-1.255-.664-1.994-.885-1.369-.422-2.779-.791-4.228-1.109-1.448-.317-2.935-.582-4.458-.794s-3.082-.371-4.676-.478c-1.594-.106-3.222-.16-4.882-.16-3.089 0-6.239.344-9.229 1.05-2.993.706-5.828 1.775-8.285 3.226-2.462 1.454-4.547 3.292-6.03 5.536-1.488 2.25-2.373 4.911-2.427 8.003-.055 3.131.789 5.681 2.252 7.78 1.466 2.105 3.553 3.754 5.974 5.081 2.425 1.329 5.185 2.333 7.992 3.148 2.811.816 5.668 1.442 8.286 2.016 1.511.331 3.036.664 4.474 1.016 1.439.352 2.79.723 3.953 1.128 1.164.405 2.139.844 2.824 1.333.686.489 1.082 1.027 1.087 1.631.003.409.007.957-.17 1.549-.178.593-.538 1.229-1.263 1.816-.726.587-1.817 1.122-3.458 1.511-1.642.389-3.832.632-6.754.632-1.4 0-2.782-.06-4.146-.179-1.363-.119-2.707-.298-4.03-.536s-2.624-.535-3.903-.891-2.534-.77-3.766-1.243c-.254-.093-.508-.174-.763-.243s-.512-.127-.77-.173c-.259-.046-.519-.08-.783-.103s-.531-.034-.803-.034c-1.023 0-1.992.174-2.873.491s-1.672.777-2.339 1.349c-.667.573-1.208 1.258-1.586 2.024-.379.767-.595 1.616-.611 2.514-.012.652.1 1.298.317 1.916s.539 1.208.948 1.746.906 1.025 1.471 1.436c.565.412 1.199.748 1.883.985 1.746.657 3.529 1.234 5.347 1.729 1.819.495 3.672.909 5.555 1.241 1.884.332 3.799.581 5.741.747s3.911.25 5.903.25c3.895 0 7.493-.47 10.697-1.343 3.2-.872 6.002-2.145 8.309-3.75 2.303-1.602 4.111-3.534 5.331-5.727 1.216-2.187 1.847-4.632 1.8-7.267-.06-3.367-.985-6.061-2.494-8.242z" fill="#f89832"/><g fill="#583712"><path d="m113.112 79.923c-2.394-1.313-5.098-2.275-7.838-3.038-2.738-.762-5.513-1.326-8.052-1.842-2.154-.438-4.023-.839-5.613-1.239-1.589-.4-2.901-.799-3.943-1.234-1.041-.435-1.813-.907-2.324-1.452-.391-.417-.625-.879-.712-1.398-.015.123-.04.241-.041.369-.005.728.243 1.346.753 1.89.51.545 1.282 1.017 2.324 1.452s2.354.834 3.943 1.234c1.59.4 3.459.8 5.613 1.239 2.539.515 5.314 1.079 8.052 1.842 2.74.763 5.444 1.726 7.838 3.038 2.398 1.315 4.487 2.983 5.992 5.158 1.481 2.14 2.393 4.777 2.484 8.053.006-.224.014-.447.01-.673-.06-3.366-.985-6.06-2.494-8.241-1.505-2.175-3.594-3.843-5.992-5.158z"/><path d="m71.9 62.602c1.484-2.243 3.568-4.082 6.03-5.536 2.457-1.451 5.293-2.52 8.285-3.226 2.99-.706 6.139-1.05 9.228-1.05 1.66 0 3.288.053 4.882.16 1.594.106 3.153.266 4.676.478s3.01.477 4.458.794c1.449.317 2.859.687 4.228 1.109.739.221 1.407.52 1.994.885s1.094.798 1.51 1.286c.416.489.741 1.034.965 1.625.192.508.293 1.056.329 1.625.02-.195.031-.39.028-.585-.011-.673-.133-1.31-.357-1.902-.224-.591-.549-1.136-.965-1.625s-.922-.921-1.51-1.286c-.587-.365-1.255-.664-1.994-.885-1.369-.422-2.779-.791-4.228-1.109-1.448-.317-2.935-.582-4.458-.794s-3.082-.371-4.676-.478c-1.594-.106-3.222-.16-4.882-.16-3.089 0-6.239.344-9.228 1.05-2.993.706-5.828 1.775-8.285 3.226-2.462 1.454-4.547 3.292-6.03 5.536-1.488 2.25-2.373 4.911-2.427 8.003-.004.217.007.424.012.635.092-2.994.963-5.582 2.415-7.776z"/><path d="m68.907 99.705c.378-.766.919-1.451 1.586-2.024.666-.572 1.458-1.032 2.339-1.349.88-.317 1.85-.491 2.873-.491.272 0 .539.011.803.034s.525.057.783.103c.259.046.515.103.77.173.255.069.509.15.763.243 1.232.473 2.488.887 3.766 1.243 1.279.356 2.581.653 3.903.891 1.323.238 2.667.417 4.03.536s2.746.179 4.146.179c2.922 0 5.113-.242 6.754-.632 1.641-.389 2.732-.925 3.458-1.511.725-.586 1.085-1.223 1.263-1.815s.173-1.14.17-1.549c0-.043-.017-.082-.021-.124-.022.254-.064.528-.149.812-.178.593-.538 1.229-1.263 1.815-.726.587-1.817 1.122-3.458 1.511-1.642.389-3.832.632-6.754.632-1.4 0-2.782-.06-4.146-.179-1.363-.12-2.707-.298-4.03-.536s-2.624-.535-3.903-.891-2.534-.77-3.766-1.243c-.254-.093-.508-.174-.763-.243s-.512-.127-.77-.173c-.259-.046-.519-.08-.783-.103s-.531-.034-.803-.034c-1.023 0-1.992.174-2.873.491s-1.672.777-2.339 1.349c-.667.573-1.208 1.258-1.586 2.024-.379.767-.595 1.616-.611 2.514-.003.143.023.285.032.427.067-.737.262-1.439.579-2.08z"/></g><path d="m116.685 63.442c-.602.578-1.341 1.065-2.203 1.407s-1.846.54-2.936.54c-.261 0-.516-.017-.762-.045s-.483-.068-.707-.114c-.225-.046-.437-.099-.634-.154s-.379-.111-.543-.163c-1.01-.293-2.033-.55-3.066-.771s-2.076-.405-3.128-.552c-1.052-.148-2.112-.258-3.18-.332s-2.142-.111-3.222-.111c-1.346 0-2.749.085-4.096.273-1.348.188-2.641.478-3.767.889s-2.086.943-2.765 1.613c-.68.671-1.08 1.48-1.087 2.446-.001.17.014.333.041.492.095-.802.456-1.495 1.046-2.077.68-.67 1.639-1.202 2.765-1.613s2.419-.701 3.767-.889 2.751-.273 4.096-.273c1.08 0 2.154.037 3.222.111 1.067.074 2.128.185 3.18.332 1.052.148 2.095.332 3.128.552 1.033.221 2.056.478 3.066.771.164.053.345.109.543.163.197.055.41.108.634.154.225.046.461.086.707.114s.501.045.762.045c1.09 0 2.074-.198 2.936-.54s1.601-.829 2.203-1.407c.601-.578 1.064-1.247 1.374-1.954.31-.706.466-1.451.454-2.181-.002-.095-.022-.183-.028-.276-.056.539-.199 1.078-.427 1.597-.308.706-.772 1.375-1.373 1.953z" fill="#fecd87"/><path d="m119.798 99.728c-1.22 2.193-3.028 4.125-5.331 5.727-2.308 1.605-5.11 2.878-8.309 3.75-3.203.873-6.802 1.343-10.697 1.343-1.992 0-3.961-.084-5.903-.25s-3.856-.416-5.741-.747c-1.884-.332-3.736-.745-5.555-1.241-1.818-.495-3.601-1.072-5.347-1.729-.684-.238-1.318-.574-1.883-.985s-1.062-.898-1.471-1.436-.731-1.128-.948-1.746c-.169-.482-.252-.983-.285-1.489-.013.144-.029.287-.032.434-.012.652.1 1.298.317 1.916s.539 1.208.948 1.746.906 1.025 1.471 1.436c.565.412 1.199.748 1.883.985 1.746.657 3.529 1.234 5.347 1.729 1.819.495 3.672.909 5.555 1.241 1.884.332 3.799.581 5.741.747s3.911.25 5.903.25c3.895 0 7.493-.47 10.697-1.343 3.2-.872 6.002-2.145 8.309-3.75 2.303-1.602 4.111-3.534 5.331-5.727 1.216-2.187 1.847-4.632 1.8-7.267-.001-.064-.008-.124-.01-.188-.062 2.379-.678 4.596-1.79 6.594z" fill="#fecd87"/><path d="m77.698 82.604c2.425 1.329 5.185 2.333 7.992 3.148 2.811.816 5.668 1.442 8.286 2.016 1.511.331 3.036.664 4.474 1.016 1.439.352 2.79.723 3.953 1.128 1.164.405 2.139.844 2.824 1.333.638.454 1.01.954 1.065 1.507.023-.274.023-.524.021-.737-.005-.604-.401-1.142-1.087-1.631-.686-.488-1.661-.928-2.824-1.333s-2.514-.776-3.953-1.128c-1.438-.352-2.963-.686-4.474-1.016-2.618-.574-5.476-1.2-8.286-2.016-2.807-.815-5.567-1.819-7.992-3.148-2.421-1.326-4.507-2.975-5.974-5.081-1.361-1.954-2.176-4.305-2.24-7.144-.002.076-.01.149-.012.226-.055 3.131.789 5.681 2.252 7.78 1.467 2.104 3.554 3.753 5.975 5.08z" fill="#fecd87"/><path d="m165.584 35.297c-.068-.854-.365-1.666-.845-2.404-.479-.736-1.139-1.398-1.934-1.953-.794-.554-1.722-1.002-2.737-1.312-1.015-.309-2.118-.48-3.264-.48h-114.244c-1.144 0-2.246.171-3.26.48-1.015.309-1.942.757-2.735 1.312-.794.555-1.454 1.217-1.933 1.953-.479.737-.777 1.55-.845 2.404l-3.839 48.403h139.475z" fill="url(#d)" opacity=".3"/></svg>