<svg height="916.25" width="720" xmlns="http://www.w3.org/2000/svg"><g transform="matrix(.125 0 0 -.125 0 916.25)"><path d="m2850 5093.75-1339.23-471.3 211.62-1754.63 1129.03-620.54 1134.85 628.95 211.55 1754.56z" fill="#b3b3b3"/><path d="m4064.25 4529.39-1217.38 415.13v-2548.98l1020.22 564.62z" fill="#af2b2d"/><path d="m1661.05 4521.89 181.34-1569.22 1004.47-557.13v2549.03z" fill="#df2e31"/><path d="m3129.05 3676.7-279.96 584.64-246.46-584.64zm106.74-245.83h-742.11l-166.02-415.26-308.82-5.71 828.04 1842.06 856.9-1842.06h-286.23z" fill="#f2f2f2"/><path d="m2846.87 4851.96 2.21-590.62 279.67-585.09h-281.25l-.63-245 388.9-.38 181.77-421.04 295.49-5.48z" fill="#b3b3b3"/></g></svg>